<?xml version="1.0" encoding="UTF-8"?>
<svg version="1.1" xmlns="http://www.w3.org/2000/svg" width="112" height="112">
<path d="M0 0 C7.92 0 15.84 0 24 0 C24 0.66 24 1.32 24 2 C25.98 2 27.96 2 30 2 C30 2.66 30 3.32 30 4 C31.32 4 32.64 4 34 4 C34 4.66 34 5.32 34 6 C35.32 6 36.64 6 38 6 C38 6.66 38 7.32 38 8 C39.32 8 40.64 8 42 8 C42 8.66 42 9.32 42 10 C42.66 10 43.32 10 44 10 C44 10.66 44 11.32 44 12 C44.66 12 45.32 12 46 12 C46 12.66 46 13.32 46 14 C46.66 14 47.32 14 48 14 C48 15.32 48 16.64 48 18 C48.66 18 49.32 18 50 18 C50 19.32 50 20.64 50 22 C50.66 22 51.32 22 52 22 C52 29.92 52 37.84 52 46 C52.66 46 53.32 46 54 46 C54 52.6 54 59.2 54 66 C53.34 66 52.68 66 52 66 C52 67.32 52 68.64 52 70 C51.34 70 50.68 70 50 70 C50 70.66 50 71.32 50 72 C49.34 72 48.68 72 48 72 C48 73.32 48 74.64 48 76 C47.34 76 46.68 76 46 76 C46 77.98 46 79.96 46 82 C45.34 82 44.68 82 44 82 C44 83.32 44 84.64 44 86 C43.34 86 42.68 86 42 86 C42 87.32 42 88.64 42 90 C41.34 90 40.68 90 40 90 C40 90.66 40 91.32 40 92 C39.34 92 38.68 92 38 92 C38 93.32 38 94.64 38 96 C37.34 96 36.68 96 36 96 C36 97.32 36 98.64 36 100 C35.34 100 34.68 100 34 100 C34 101.32 34 102.64 34 104 C33.34 104 32.68 104 32 104 C32 104.66 32 105.32 32 106 C31.34 106 30.68 106 30 106 C30 106.66 30 107.32 30 108 C29.34 108 28.68 108 28 108 C28 108.66 28 109.32 28 110 C26.68 110 25.36 110 24 110 C24 110.66 24 111.32 24 112 C16.08 112 8.16 112 0 112 C0 111.34 0 110.68 0 110 C-1.32 110 -2.64 110 -4 110 C-4 109.34 -4 108.68 -4 108 C-4.66 108 -5.32 108 -6 108 C-6 107.34 -6 106.68 -6 106 C-6.66 106 -7.32 106 -8 106 C-8 105.34 -8 104.68 -8 104 C-8.66 104 -9.32 104 -10 104 C-10 102.68 -10 101.36 -10 100 C-10.66 100 -11.32 100 -12 100 C-12 98.68 -12 97.36 -12 96 C-12.66 96 -13.32 96 -14 96 C-14 94.68 -14 93.36 -14 92 C-14.66 92 -15.32 92 -16 92 C-16 90.68 -16 89.36 -16 88 C-16.66 88 -17.32 88 -18 88 C-18 86.68 -18 85.36 -18 84 C-18.66 84 -19.32 84 -20 84 C-20 82.68 -20 81.36 -20 80 C-20.66 80 -21.32 80 -22 80 C-22 78.02 -22 76.04 -22 74 C-22.66 74 -23.32 74 -24 74 C-24 73.34 -24 72.68 -24 72 C-24.66 72 -25.32 72 -26 72 C-26 71.34 -26 70.68 -26 70 C-26.66 70 -27.32 70 -28 70 C-28 68.68 -28 67.36 -28 66 C-28.66 66 -29.32 66 -30 66 C-30 59.4 -30 52.8 -30 46 C-29.34 46 -28.68 46 -28 46 C-28 38.74 -28 31.48 -28 24 C-27.34 24 -26.68 24 -26 24 C-26 22.68 -26 21.36 -26 20 C-25.34 20 -24.68 20 -24 20 C-24 18.68 -24 17.36 -24 16 C-23.34 16 -22.68 16 -22 16 C-22 15.34 -22 14.68 -22 14 C-21.34 14 -20.68 14 -20 14 C-20 13.34 -20 12.68 -20 12 C-19.34 12 -18.68 12 -18 12 C-18 11.34 -18 10.68 -18 10 C-17.34 10 -16.68 10 -16 10 C-16 9.34 -16 8.68 -16 8 C-15.34 8 -14.68 8 -14 8 C-14 7.34 -14 6.68 -14 6 C-12.68 6 -11.36 6 -10 6 C-10 5.34 -10 4.68 -10 4 C-8.68 4 -7.36 4 -6 4 C-6 3.34 -6 2.68 -6 2 C-4.02 2 -2.04 2 0 2 C0 1.34 0 0.68 0 0 Z " fill="#472E2C" transform="translate(44,0)"/>
<path d="M0 0 C1.32 0 2.64 0 4 0 C4 1.98 4 3.96 4 6 C4.66 6 5.32 6 6 6 C6 4.02 6 2.04 6 0 C9.3 0 12.6 0 16 0 C16 0.66 16 1.32 16 2 C16.66 2 17.32 2 18 2 C18 2.66 18 3.32 18 4 C18.66 4 19.32 4 20 4 C20 3.34 20 2.68 20 2 C20.66 2 21.32 2 22 2 C22 3.32 22 4.64 22 6 C22.66 6 23.32 6 24 6 C24 4.68 24 3.36 24 2 C25.32 2 26.64 2 28 2 C28 3.32 28 4.64 28 6 C28.66 6 29.32 6 30 6 C30 4.68 30 3.36 30 2 C30.66 2 31.32 2 32 2 C32 2.66 32 3.32 32 4 C32.66 4 33.32 4 34 4 C34 3.34 34 2.68 34 2 C34.66 2 35.32 2 36 2 C36 1.34 36 0.68 36 0 C39.3 0 42.6 0 46 0 C46 1.98 46 3.96 46 6 C46.66 6 47.32 6 48 6 C48 4.02 48 2.04 48 0 C49.32 0 50.64 0 52 0 C52 2.64 52 5.28 52 8 C51.34 8 50.68 8 50 8 C50 8.66 50 9.32 50 10 C44.72 10 39.44 10 34 10 C34 10.66 34 11.32 34 12 C39.94 12 45.88 12 52 12 C52 11.34 52 10.68 52 10 C52.66 10 53.32 10 54 10 C54 10.66 54 11.32 54 12 C54.66 12 55.32 12 56 12 C56 17.28 56 22.56 56 28 C55.34 28 54.68 28 54 28 C54 28.66 54 29.32 54 30 C53.34 30 52.68 30 52 30 C52 31.32 52 32.64 52 34 C51.34 34 50.68 34 50 34 C50 33.34 50 32.68 50 32 C49.34 32 48.68 32 48 32 C48 33.32 48 34.64 48 36 C47.34 36 46.68 36 46 36 C46 36.66 46 37.32 46 38 C44.68 38 43.36 38 42 38 C42 41.96 42 45.92 42 50 C41.34 50 40.68 50 40 50 C40 50.66 40 51.32 40 52 C39.34 52 38.68 52 38 52 C38 51.34 38 50.68 38 50 C37.34 50 36.68 50 36 50 C36 50.66 36 51.32 36 52 C35.34 52 34.68 52 34 52 C34 52.66 34 53.32 34 54 C28.72 54 23.44 54 18 54 C18 53.34 18 52.68 18 52 C17.34 52 16.68 52 16 52 C16 51.34 16 50.68 16 50 C15.34 50 14.68 50 14 50 C14 50.66 14 51.32 14 52 C12.68 52 11.36 52 10 52 C10 47.38 10 42.76 10 38 C9.34 38 8.68 38 8 38 C8 38.66 8 39.32 8 40 C7.34 40 6.68 40 6 40 C6 40.66 6 41.32 6 42 C5.34 42 4.68 42 4 42 C4 41.34 4 40.68 4 40 C3.34 40 2.68 40 2 40 C2 38.68 2 37.36 2 36 C1.34 36 0.68 36 0 36 C0 35.34 0 34.68 0 34 C-0.66 34 -1.32 34 -2 34 C-2 31.36 -2 28.72 -2 26 C-2.66 26 -3.32 26 -4 26 C-4 21.38 -4 16.76 -4 12 C-3.34 12 -2.68 12 -2 12 C-2 11.34 -2 10.68 -2 10 C-1.34 10 -0.68 10 0 10 C0 10.66 0 11.32 0 12 C5.94 12 11.88 12 18 12 C18 11.34 18 10.68 18 10 C12.72 10 7.44 10 2 10 C2 9.34 2 8.68 2 8 C1.34 8 0.68 8 0 8 C0 5.36 0 2.72 0 0 Z " fill="#FBD9A1" transform="translate(30,42)"/>
<path d="M0 0 C7.92 0 15.84 0 24 0 C24 0.66 24 1.32 24 2 C25.98 2 27.96 2 30 2 C30 2.66 30 3.32 30 4 C31.32 4 32.64 4 34 4 C34 4.66 34 5.32 34 6 C35.32 6 36.64 6 38 6 C38 6.66 38 7.32 38 8 C39.32 8 40.64 8 42 8 C42 8.66 42 9.32 42 10 C42.66 10 43.32 10 44 10 C44 10.66 44 11.32 44 12 C44.66 12 45.32 12 46 12 C46 12.66 46 13.32 46 14 C46.66 14 47.32 14 48 14 C48 15.32 48 16.64 48 18 C48.66 18 49.32 18 50 18 C50 19.32 50 20.64 50 22 C50.66 22 51.32 22 52 22 C52 29.92 52 37.84 52 46 C52.66 46 53.32 46 54 46 C54 52.6 54 59.2 54 66 C53.34 66 52.68 66 52 66 C52 67.32 52 68.64 52 70 C51.34 70 50.68 70 50 70 C50 70.66 50 71.32 50 72 C49.34 72 48.68 72 48 72 C48 73.32 48 74.64 48 76 C47.34 76 46.68 76 46 76 C46 77.98 46 79.96 46 82 C45.34 82 44.68 82 44 82 C44 83.32 44 84.64 44 86 C43.34 86 42.68 86 42 86 C42 87.32 42 88.64 42 90 C41.34 90 40.68 90 40 90 C40 90.66 40 91.32 40 92 C39.34 92 38.68 92 38 92 C38 93.32 38 94.64 38 96 C37.34 96 36.68 96 36 96 C36 97.32 36 98.64 36 100 C35.34 100 34.68 100 34 100 C34 101.32 34 102.64 34 104 C33.34 104 32.68 104 32 104 C32 104.66 32 105.32 32 106 C31.34 106 30.68 106 30 106 C30 106.66 30 107.32 30 108 C29.34 108 28.68 108 28 108 C28 108.66 28 109.32 28 110 C26.68 110 25.36 110 24 110 C24 110.66 24 111.32 24 112 C16.08 112 8.16 112 0 112 C0 111.34 0 110.68 0 110 C-1.32 110 -2.64 110 -4 110 C-4 109.34 -4 108.68 -4 108 C-4.66 108 -5.32 108 -6 108 C-6 107.34 -6 106.68 -6 106 C-6.66 106 -7.32 106 -8 106 C-8 105.34 -8 104.68 -8 104 C-8.66 104 -9.32 104 -10 104 C-10 102.68 -10 101.36 -10 100 C-10.66 100 -11.32 100 -12 100 C-12 98.68 -12 97.36 -12 96 C-12.66 96 -13.32 96 -14 96 C-14 94.68 -14 93.36 -14 92 C-14.66 92 -15.32 92 -16 92 C-16 90.68 -16 89.36 -16 88 C-16.66 88 -17.32 88 -18 88 C-18 86.68 -18 85.36 -18 84 C-18.66 84 -19.32 84 -20 84 C-20 82.68 -20 81.36 -20 80 C-20.66 80 -21.32 80 -22 80 C-22 78.02 -22 76.04 -22 74 C-22.66 74 -23.32 74 -24 74 C-24 73.34 -24 72.68 -24 72 C-24.66 72 -25.32 72 -26 72 C-26 71.34 -26 70.68 -26 70 C-26.66 70 -27.32 70 -28 70 C-28 68.68 -28 67.36 -28 66 C-28.66 66 -29.32 66 -30 66 C-30 59.4 -30 52.8 -30 46 C-29.34 46 -28.68 46 -28 46 C-28 38.74 -28 31.48 -28 24 C-27.34 24 -26.68 24 -26 24 C-26 22.68 -26 21.36 -26 20 C-25.34 20 -24.68 20 -24 20 C-24 18.68 -24 17.36 -24 16 C-23.34 16 -22.68 16 -22 16 C-22 15.34 -22 14.68 -22 14 C-21.34 14 -20.68 14 -20 14 C-20 13.34 -20 12.68 -20 12 C-19.34 12 -18.68 12 -18 12 C-18 11.34 -18 10.68 -18 10 C-17.34 10 -16.68 10 -16 10 C-16 9.34 -16 8.68 -16 8 C-15.34 8 -14.68 8 -14 8 C-14 7.34 -14 6.68 -14 6 C-12.68 6 -11.36 6 -10 6 C-10 5.34 -10 4.68 -10 4 C-8.68 4 -7.36 4 -6 4 C-6 3.34 -6 2.68 -6 2 C-4.02 2 -2.04 2 0 2 C0 1.34 0 0.68 0 0 Z M2 4 C2 4.66 2 5.32 2 6 C0.02 6 -1.96 6 -4 6 C-4 6.66 -4 7.32 -4 8 C-4.66 8 -5.32 8 -6 8 C-6 8.66 -6 9.32 -6 10 C-6.66 10 -7.32 10 -8 10 C-8 11.32 -8 12.64 -8 14 C-8.66 14 -9.32 14 -10 14 C-10 15.32 -10 16.64 -10 18 C-8.68 18 -7.36 18 -6 18 C-6 17.34 -6 16.68 -6 16 C-5.34 16 -4.68 16 -4 16 C-4 15.34 -4 14.68 -4 14 C-3.34 14 -2.68 14 -2 14 C-2 15.32 -2 16.64 -2 18 C-2.66 18 -3.32 18 -4 18 C-4 18.66 -4 19.32 -4 20 C-2.68 20 -1.36 20 0 20 C0 20.66 0 21.32 0 22 C-1.98 22 -3.96 22 -6 22 C-6 22.66 -6 23.32 -6 24 C-6.66 24 -7.32 24 -8 24 C-8 24.66 -8 25.32 -8 26 C-8.66 26 -9.32 26 -10 26 C-10 26.66 -10 27.32 -10 28 C-11.32 28 -12.64 28 -14 28 C-14 25.36 -14 22.72 -14 20 C-14.66 20 -15.32 20 -16 20 C-16 21.32 -16 22.64 -16 24 C-16.66 24 -17.32 24 -18 24 C-18 23.34 -18 22.68 -18 22 C-18.66 22 -19.32 22 -20 22 C-20 23.32 -20 24.64 -20 26 C-20.66 26 -21.32 26 -22 26 C-22 27.98 -22 29.96 -22 32 C-21.34 32 -20.68 32 -20 32 C-20 30.68 -20 29.36 -20 28 C-19.34 28 -18.68 28 -18 28 C-18 29.32 -18 30.64 -18 32 C-17.34 32 -16.68 32 -16 32 C-16 35.3 -16 38.6 -16 42 C-16.66 42 -17.32 42 -18 42 C-18 43.32 -18 44.64 -18 46 C-18.66 46 -19.32 46 -20 46 C-20 47.32 -20 48.64 -20 50 C-21.98 50 -23.96 50 -26 50 C-26 54.62 -26 59.24 -26 64 C-25.34 64 -24.68 64 -24 64 C-24 65.32 -24 66.64 -24 68 C-23.34 68 -22.68 68 -22 68 C-22 68.66 -22 69.32 -22 70 C-21.34 70 -20.68 70 -20 70 C-20 70.66 -20 71.32 -20 72 C-19.34 72 -18.68 72 -18 72 C-18 73.32 -18 74.64 -18 76 C-17.34 76 -16.68 76 -16 76 C-16 77.32 -16 78.64 -16 80 C-15.34 80 -14.68 80 -14 80 C-14 81.32 -14 82.64 -14 84 C-13.34 84 -12.68 84 -12 84 C-12 85.32 -12 86.64 -12 88 C-11.34 88 -10.68 88 -10 88 C-10 87.34 -10 86.68 -10 86 C-9.34 86 -8.68 86 -8 86 C-8 87.98 -8 89.96 -8 92 C-7.34 92 -6.68 92 -6 92 C-6 93.98 -6 95.96 -6 98 C-5.34 98 -4.68 98 -4 98 C-4 98.66 -4 99.32 -4 100 C-3.34 100 -2.68 100 -2 100 C-2 100.66 -2 101.32 -2 102 C-1.34 102 -0.68 102 0 102 C0 102.66 0 103.32 0 104 C0.66 104 1.32 104 2 104 C2 104.66 2 105.32 2 106 C3.32 106 4.64 106 6 106 C6 106.66 6 107.32 6 108 C9.96 108 13.92 108 18 108 C18 107.34 18 106.68 18 106 C19.32 106 20.64 106 22 106 C22 105.34 22 104.68 22 104 C22.66 104 23.32 104 24 104 C24 103.34 24 102.68 24 102 C24.66 102 25.32 102 26 102 C26 101.34 26 100.68 26 100 C26.66 100 27.32 100 28 100 C28 98.68 28 97.36 28 96 C28.66 96 29.32 96 30 96 C30 94.68 30 93.36 30 92 C30.66 92 31.32 92 32 92 C32 90.02 32 88.04 32 86 C32.66 86 33.32 86 34 86 C34 86.66 34 87.32 34 88 C34.66 88 35.32 88 36 88 C36 87.34 36 86.68 36 86 C36.66 86 37.32 86 38 86 C38 84.02 38 82.04 38 80 C38.66 80 39.32 80 40 80 C40 78.68 40 77.36 40 76 C40.66 76 41.32 76 42 76 C42 74.68 42 73.36 42 72 C42.66 72 43.32 72 44 72 C44 71.34 44 70.68 44 70 C44.66 70 45.32 70 46 70 C46 69.34 46 68.68 46 68 C46.66 68 47.32 68 48 68 C48 66.68 48 65.36 48 64 C48.66 64 49.32 64 50 64 C50 59.38 50 54.76 50 50 C48.68 50 47.36 50 46 50 C46 49.34 46 48.68 46 48 C45.34 48 44.68 48 44 48 C44 46.68 44 45.36 44 44 C43.34 44 42.68 44 42 44 C42 44.66 42 45.32 42 46 C41.34 46 40.68 46 40 46 C40 42.7 40 39.4 40 36 C39.34 36 38.68 36 38 36 C38 34.02 38 32.04 38 30 C38.66 30 39.32 30 40 30 C40 30.66 40 31.32 40 32 C40.66 32 41.32 32 42 32 C42 30.02 42 28.04 42 26 C42.66 26 43.32 26 44 26 C44 26.66 44 27.32 44 28 C44.66 28 45.32 28 46 28 C46 26.02 46 24.04 46 22 C45.34 22 44.68 22 44 22 C44 20.68 44 19.36 44 18 C43.34 18 42.68 18 42 18 C42 17.34 42 16.68 42 16 C41.34 16 40.68 16 40 16 C40 15.34 40 14.68 40 14 C39.34 14 38.68 14 38 14 C38 13.34 38 12.68 38 12 C37.34 12 36.68 12 36 12 C36 11.34 36 10.68 36 10 C34.68 10 33.36 10 32 10 C32 9.34 32 8.68 32 8 C30.68 8 29.36 8 28 8 C28 7.34 28 6.68 28 6 C26.02 6 24.04 6 22 6 C22 5.34 22 4.68 22 4 C15.4 4 8.8 4 2 4 Z " fill="#030202" transform="translate(44,0)"/>
<path d="M0 0 C0.66 0 1.32 0 2 0 C2 2.64 2 5.28 2 8 C3.32 8 4.64 8 6 8 C6 7.34 6 6.68 6 6 C6.66 6 7.32 6 8 6 C8 5.34 8 4.68 8 4 C9.98 4 11.96 4 14 4 C14 4.66 14 5.32 14 6 C15.32 6 16.64 6 18 6 C18 6.66 18 7.32 18 8 C23.28 8 28.56 8 34 8 C34 7.34 34 6.68 34 6 C35.32 6 36.64 6 38 6 C38 5.34 38 4.68 38 4 C38.66 4 39.32 4 40 4 C40 3.34 40 2.68 40 2 C40.66 2 41.32 2 42 2 C42 1.34 42 0.68 42 0 C43.32 0 44.64 0 46 0 C46 0.66 46 1.32 46 2 C46.66 2 47.32 2 48 2 C48 3.32 48 4.64 48 6 C48.66 6 49.32 6 50 6 C50 7.32 50 8.64 50 10 C50.66 10 51.32 10 52 10 C52 11.32 52 12.64 52 14 C51.34 14 50.68 14 50 14 C50 13.34 50 12.68 50 12 C49.34 12 48.68 12 48 12 C48 11.34 48 10.68 48 10 C44.04 10 40.08 10 36 10 C36 10.66 36 11.32 36 12 C35.34 12 34.68 12 34 12 C34 12.66 34 13.32 34 14 C37.3 14 40.6 14 44 14 C44 14.66 44 15.32 44 16 C40.7 16 37.4 16 34 16 C34 16.66 34 17.32 34 18 C33.34 18 32.68 18 32 18 C32 21.3 32 24.6 32 28 C31.34 28 30.68 28 30 28 C30 26.68 30 25.36 30 24 C28.68 24 27.36 24 26 24 C26 25.32 26 26.64 26 28 C25.34 28 24.68 28 24 28 C24 26.68 24 25.36 24 24 C23.34 24 22.68 24 22 24 C22 24.66 22 25.32 22 26 C21.34 26 20.68 26 20 26 C20 25.34 20 24.68 20 24 C19.34 24 18.68 24 18 24 C18 23.34 18 22.68 18 22 C14.7 22 11.4 22 8 22 C8 23.98 8 25.96 8 28 C7.34 28 6.68 28 6 28 C6 26.02 6 24.04 6 22 C4.68 22 3.36 22 2 22 C2 24.64 2 27.28 2 30 C2.66 30 3.32 30 4 30 C4 30.66 4 31.32 4 32 C9.28 32 14.56 32 20 32 C20 32.66 20 33.32 20 34 C14.06 34 8.12 34 2 34 C2 33.34 2 32.68 2 32 C1.34 32 0.68 32 0 32 C0 32.66 0 33.32 0 34 C-0.66 34 -1.32 34 -2 34 C-2 38.62 -2 43.24 -2 48 C-1.34 48 -0.68 48 0 48 C0 50.64 0 53.28 0 56 C-0.66 56 -1.32 56 -2 56 C-2 54.68 -2 53.36 -2 52 C-2.66 52 -3.32 52 -4 52 C-4 51.34 -4 50.68 -4 50 C-4.66 50 -5.32 50 -6 50 C-6 49.34 -6 48.68 -6 48 C-6.66 48 -7.32 48 -8 48 C-8 46.68 -8 45.36 -8 44 C-8.66 44 -9.32 44 -10 44 C-10 39.38 -10 34.76 -10 30 C-8.02 30 -6.04 30 -4 30 C-4 28.68 -4 27.36 -4 26 C-3.34 26 -2.68 26 -2 26 C-2 24.68 -2 23.36 -2 22 C-1.34 22 -0.68 22 0 22 C0 18.7 0 15.4 0 12 C-0.66 12 -1.32 12 -2 12 C-2 10.68 -2 9.36 -2 8 C-2.66 8 -3.32 8 -4 8 C-4 9.32 -4 10.64 -4 12 C-4.66 12 -5.32 12 -6 12 C-6 10.02 -6 8.04 -6 6 C-5.34 6 -4.68 6 -4 6 C-4 4.68 -4 3.36 -4 2 C-3.34 2 -2.68 2 -2 2 C-2 2.66 -2 3.32 -2 4 C-1.34 4 -0.68 4 0 4 C0 2.68 0 1.36 0 0 Z " fill="#6B192C" transform="translate(28,20)"/>
<path d="M0 0 C0.66 0 1.32 0 2 0 C2 1.32 2 2.64 2 4 C2.66 4 3.32 4 4 4 C4 4.66 4 5.32 4 6 C3.34 6 2.68 6 2 6 C2 6.66 2 7.32 2 8 C2.66 8 3.32 8 4 8 C4 8.66 4 9.32 4 10 C4.66 10 5.32 10 6 10 C6 10.66 6 11.32 6 12 C6.66 12 7.32 12 8 12 C8 14.64 8 17.28 8 20 C7.34 20 6.68 20 6 20 C6 21.32 6 22.64 6 24 C5.34 24 4.68 24 4 24 C4 24.66 4 25.32 4 26 C3.34 26 2.68 26 2 26 C2 27.32 2 28.64 2 30 C1.34 30 0.68 30 0 30 C0 30.66 0 31.32 0 32 C-5.28 32 -10.56 32 -16 32 C-16 31.34 -16 30.68 -16 30 C-16.66 30 -17.32 30 -18 30 C-18 28.68 -18 27.36 -18 26 C-18.66 26 -19.32 26 -20 26 C-20 25.34 -20 24.68 -20 24 C-20.66 24 -21.32 24 -22 24 C-22 22.68 -22 21.36 -22 20 C-22.66 20 -23.32 20 -24 20 C-24 17.36 -24 14.72 -24 12 C-23.34 12 -22.68 12 -22 12 C-22 11.34 -22 10.68 -22 10 C-21.34 10 -20.68 10 -20 10 C-20 9.34 -20 8.68 -20 8 C-19.34 8 -18.68 8 -18 8 C-18 6.02 -18 4.04 -18 2 C-15.36 2 -12.72 2 -10 2 C-10 2.66 -10 3.32 -10 4 C-8.68 4 -7.36 4 -6 4 C-6 3.34 -6 2.68 -6 2 C-4.02 2 -2.04 2 0 2 C0 1.34 0 0.68 0 0 Z " fill="#A54939" transform="translate(64,58)"/>
<path d="M0 0 C1.32 0 2.64 0 4 0 C4 1.98 4 3.96 4 6 C4.66 6 5.32 6 6 6 C6 4.02 6 2.04 6 0 C9.3 0 12.6 0 16 0 C16 0.66 16 1.32 16 2 C16.66 2 17.32 2 18 2 C18 2.66 18 3.32 18 4 C18.66 4 19.32 4 20 4 C20 3.34 20 2.68 20 2 C20.66 2 21.32 2 22 2 C22 3.32 22 4.64 22 6 C22.66 6 23.32 6 24 6 C24 4.68 24 3.36 24 2 C25.32 2 26.64 2 28 2 C28 3.32 28 4.64 28 6 C28.66 6 29.32 6 30 6 C30 4.68 30 3.36 30 2 C30.66 2 31.32 2 32 2 C32 2.66 32 3.32 32 4 C32.66 4 33.32 4 34 4 C34 3.34 34 2.68 34 2 C34.66 2 35.32 2 36 2 C36 1.34 36 0.68 36 0 C39.3 0 42.6 0 46 0 C46 1.98 46 3.96 46 6 C46.66 6 47.32 6 48 6 C48 4.02 48 2.04 48 0 C49.32 0 50.64 0 52 0 C52 2.64 52 5.28 52 8 C51.34 8 50.68 8 50 8 C50 8.66 50 9.32 50 10 C44.72 10 39.44 10 34 10 C34 10.66 34 11.32 34 12 C35.32 12 36.64 12 38 12 C38 12.66 38 13.32 38 14 C37.34 14 36.68 14 36 14 C36 14.66 36 15.32 36 16 C35.34 16 34.68 16 34 16 C34 16.66 34 17.32 34 18 C32.02 18 30.04 18 28 18 C28 18.66 28 19.32 28 20 C26.68 20 25.36 20 24 20 C24 19.34 24 18.68 24 18 C21.36 18 18.72 18 16 18 C16 16.68 16 15.36 16 14 C15.34 14 14.68 14 14 14 C14 13.34 14 12.68 14 12 C15.32 12 16.64 12 18 12 C18 11.34 18 10.68 18 10 C12.72 10 7.44 10 2 10 C2 9.34 2 8.68 2 8 C1.34 8 0.68 8 0 8 C0 5.36 0 2.72 0 0 Z " fill="#E59D80" transform="translate(30,42)"/>
<path d="M0 0 C0.66 0 1.32 0 2 0 C2 1.98 2 3.96 2 6 C1.34 6 0.68 6 0 6 C0 7.32 0 8.64 0 10 C-0.66 10 -1.32 10 -2 10 C-2 11.98 -2 13.96 -2 16 C-2.66 16 -3.32 16 -4 16 C-4 16.66 -4 17.32 -4 18 C-4.66 18 -5.32 18 -6 18 C-6 17.34 -6 16.68 -6 16 C-6.66 16 -7.32 16 -8 16 C-8 17.98 -8 19.96 -8 22 C-8.66 22 -9.32 22 -10 22 C-10 23.32 -10 24.64 -10 26 C-10.66 26 -11.32 26 -12 26 C-12 27.32 -12 28.64 -12 30 C-12.66 30 -13.32 30 -14 30 C-14 30.66 -14 31.32 -14 32 C-14.66 32 -15.32 32 -16 32 C-16 32.66 -16 33.32 -16 34 C-16.66 34 -17.32 34 -18 34 C-18 34.66 -18 35.32 -18 36 C-19.32 36 -20.64 36 -22 36 C-22 36.66 -22 37.32 -22 38 C-25.96 38 -29.92 38 -34 38 C-34 37.34 -34 36.68 -34 36 C-35.32 36 -36.64 36 -38 36 C-38 35.34 -38 34.68 -38 34 C-38.66 34 -39.32 34 -40 34 C-40 33.34 -40 32.68 -40 32 C-40.66 32 -41.32 32 -42 32 C-42 31.34 -42 30.68 -42 30 C-42.66 30 -43.32 30 -44 30 C-44 29.34 -44 28.68 -44 28 C-44.66 28 -45.32 28 -46 28 C-46 26.02 -46 24.04 -46 22 C-46.66 22 -47.32 22 -48 22 C-48 20.02 -48 18.04 -48 16 C-48.66 16 -49.32 16 -50 16 C-50 16.66 -50 17.32 -50 18 C-50.66 18 -51.32 18 -52 18 C-52 16.68 -52 15.36 -52 14 C-52.66 14 -53.32 14 -54 14 C-54 12.68 -54 11.36 -54 10 C-54.66 10 -55.32 10 -56 10 C-56 8.68 -56 7.36 -56 6 C-55.34 6 -54.68 6 -54 6 C-54 6.66 -54 7.32 -54 8 C-53.34 8 -52.68 8 -52 8 C-52 9.32 -52 10.64 -52 12 C-51.34 12 -50.68 12 -50 12 C-50 12.66 -50 13.32 -50 14 C-49.34 14 -48.68 14 -48 14 C-48 13.34 -48 12.68 -48 12 C-47.34 12 -46.68 12 -46 12 C-46 11.34 -46 10.68 -46 10 C-45.34 10 -44.68 10 -44 10 C-44 14.62 -44 19.24 -44 24 C-42.68 24 -41.36 24 -40 24 C-40 23.34 -40 22.68 -40 22 C-39.34 22 -38.68 22 -38 22 C-38 22.66 -38 23.32 -38 24 C-37.34 24 -36.68 24 -36 24 C-36 24.66 -36 25.32 -36 26 C-30.72 26 -25.44 26 -20 26 C-20 25.34 -20 24.68 -20 24 C-19.34 24 -18.68 24 -18 24 C-18 23.34 -18 22.68 -18 22 C-17.34 22 -16.68 22 -16 22 C-16 22.66 -16 23.32 -16 24 C-15.34 24 -14.68 24 -14 24 C-14 23.34 -14 22.68 -14 22 C-13.34 22 -12.68 22 -12 22 C-12 18.04 -12 14.08 -12 10 C-10.68 10 -9.36 10 -8 10 C-8 9.34 -8 8.68 -8 8 C-7.34 8 -6.68 8 -6 8 C-6 6.68 -6 5.36 -6 4 C-5.34 4 -4.68 4 -4 4 C-4 4.66 -4 5.32 -4 6 C-3.34 6 -2.68 6 -2 6 C-2 4.68 -2 3.36 -2 2 C-1.34 2 -0.68 2 0 2 C0 1.34 0 0.68 0 0 Z " fill="#C1755B" transform="translate(84,70)"/>
<path d="M0 0 C3.96 0 7.92 0 12 0 C12 0.66 12 1.32 12 2 C12.66 2 13.32 2 14 2 C14 2.66 14 3.32 14 4 C14.66 4 15.32 4 16 4 C16 3.34 16 2.68 16 2 C16.66 2 17.32 2 18 2 C18 3.32 18 4.64 18 6 C18.66 6 19.32 6 20 6 C20 9.3 20 12.6 20 16 C20.66 16 21.32 16 22 16 C22 15.34 22 14.68 22 14 C22.66 14 23.32 14 24 14 C24 15.32 24 16.64 24 18 C24.66 18 25.32 18 26 18 C26 18.66 26 19.32 26 20 C27.32 20 28.64 20 30 20 C30 24.62 30 29.24 30 34 C29.34 34 28.68 34 28 34 C28 35.32 28 36.64 28 38 C27.34 38 26.68 38 26 38 C26 38.66 26 39.32 26 40 C25.34 40 24.68 40 24 40 C24 40.66 24 41.32 24 42 C23.34 42 22.68 42 22 42 C22 36.06 22 30.12 22 24 C21.34 24 20.68 24 20 24 C20 23.34 20 22.68 20 22 C19.34 22 18.68 22 18 22 C18 22.66 18 23.32 18 24 C12.06 24 6.12 24 0 24 C0 23.34 0 22.68 0 22 C5.28 22 10.56 22 16 22 C16 21.34 16 20.68 16 20 C16.66 20 17.32 20 18 20 C18 17.36 18 14.72 18 12 C16.68 12 15.36 12 14 12 C14 13.98 14 15.96 14 18 C13.34 18 12.68 18 12 18 C12 16.02 12 14.04 12 12 C8.7 12 5.4 12 2 12 C2 12.66 2 13.32 2 14 C1.34 14 0.68 14 0 14 C0 14.66 0 15.32 0 16 C-0.66 16 -1.32 16 -2 16 C-2 15.34 -2 14.68 -2 14 C-2.66 14 -3.32 14 -4 14 C-4 12.02 -4 10.04 -4 8 C-3.34 8 -2.68 8 -2 8 C-2 7.34 -2 6.68 -2 6 C1.3 6 4.6 6 8 6 C8 5.34 8 4.68 8 4 C4.7 4 1.4 4 -2 4 C-2 3.34 -2 2.68 -2 2 C-1.34 2 -0.68 2 0 2 C0 1.34 0 0.68 0 0 Z " fill="#5F1F2C" transform="translate(64,30)"/>
<path d="M0 0 C0.66 0 1.32 0 2 0 C2 0.66 2 1.32 2 2 C6.62 2 11.24 2 16 2 C16 2.66 16 3.32 16 4 C16.66 4 17.32 4 18 4 C18 7.3 18 10.6 18 14 C17.34 14 16.68 14 16 14 C16 14.66 16 15.32 16 16 C15.34 16 14.68 16 14 16 C14 16.66 14 17.32 14 18 C12.68 18 11.36 18 10 18 C10 21.96 10 25.92 10 30 C9.34 30 8.68 30 8 30 C8 30.66 8 31.32 8 32 C7.34 32 6.68 32 6 32 C6 31.34 6 30.68 6 30 C5.34 30 4.68 30 4 30 C4 28.68 4 27.36 4 26 C3.34 26 2.68 26 2 26 C2 25.34 2 24.68 2 24 C1.34 24 0.68 24 0 24 C0 21.36 0 18.72 0 16 C-0.66 16 -1.32 16 -2 16 C-2 11.38 -2 6.76 -2 2 C-1.34 2 -0.68 2 0 2 C0 1.34 0 0.68 0 0 Z " fill="#FAD69D" transform="translate(28,52)"/>
<path d="M0 0 C0.66 0 1.32 0 2 0 C2 1.32 2 2.64 2 4 C2.66 4 3.32 4 4 4 C4 4.66 4 5.32 4 6 C3.34 6 2.68 6 2 6 C2 6.66 2 7.32 2 8 C2.66 8 3.32 8 4 8 C4 8.66 4 9.32 4 10 C4.66 10 5.32 10 6 10 C6 10.66 6 11.32 6 12 C6.66 12 7.32 12 8 12 C8 14.64 8 17.28 8 20 C7.34 20 6.68 20 6 20 C6 18.68 6 17.36 6 16 C4.68 16 3.36 16 2 16 C2 15.34 2 14.68 2 14 C1.34 14 0.68 14 0 14 C0 14.66 0 15.32 0 16 C-5.28 16 -10.56 16 -16 16 C-16 15.34 -16 14.68 -16 14 C-16.66 14 -17.32 14 -18 14 C-18 14.66 -18 15.32 -18 16 C-19.32 16 -20.64 16 -22 16 C-22 17.32 -22 18.64 -22 20 C-22.66 20 -23.32 20 -24 20 C-24 17.36 -24 14.72 -24 12 C-23.34 12 -22.68 12 -22 12 C-22 11.34 -22 10.68 -22 10 C-21.34 10 -20.68 10 -20 10 C-20 9.34 -20 8.68 -20 8 C-19.34 8 -18.68 8 -18 8 C-18 6.02 -18 4.04 -18 2 C-15.36 2 -12.72 2 -10 2 C-10 2.66 -10 3.32 -10 4 C-8.68 4 -7.36 4 -6 4 C-6 3.34 -6 2.68 -6 2 C-4.02 2 -2.04 2 0 2 C0 1.34 0 0.68 0 0 Z " fill="#996053" transform="translate(64,58)"/>
<path d="M0 0 C1.32 0 2.64 0 4 0 C4 0.66 4 1.32 4 2 C4.66 2 5.32 2 6 2 C6 3.32 6 4.64 6 6 C6.66 6 7.32 6 8 6 C8 7.32 8 8.64 8 10 C8.66 10 9.32 10 10 10 C10 11.32 10 12.64 10 14 C9.34 14 8.68 14 8 14 C8 13.34 8 12.68 8 12 C7.34 12 6.68 12 6 12 C6 11.34 6 10.68 6 10 C2.04 10 -1.92 10 -6 10 C-6 10.66 -6 11.32 -6 12 C-6.66 12 -7.32 12 -8 12 C-8 12.66 -8 13.32 -8 14 C-4.7 14 -1.4 14 2 14 C2 14.66 2 15.32 2 16 C-1.3 16 -4.6 16 -8 16 C-8 16.66 -8 17.32 -8 18 C-8.66 18 -9.32 18 -10 18 C-10 18.66 -10 19.32 -10 20 C-10.66 20 -11.32 20 -12 20 C-12 20.66 -12 21.32 -12 22 C-13.32 22 -14.64 22 -16 22 C-16 21.34 -16 20.68 -16 20 C-16.66 20 -17.32 20 -18 20 C-18 19.34 -18 18.68 -18 18 C-18.66 18 -19.32 18 -20 18 C-20 17.34 -20 16.68 -20 16 C-23.3 16 -26.6 16 -30 16 C-30 15.34 -30 14.68 -30 14 C-26.7 14 -23.4 14 -20 14 C-20 13.34 -20 12.68 -20 12 C-20.66 12 -21.32 12 -22 12 C-22 11.34 -22 10.68 -22 10 C-25.3 10 -28.6 10 -32 10 C-32 9.34 -32 8.68 -32 8 C-31.34 8 -30.68 8 -30 8 C-30 7.34 -30 6.68 -30 6 C-28.02 6 -26.04 6 -24 6 C-24 6.66 -24 7.32 -24 8 C-18.72 8 -13.44 8 -8 8 C-8 7.34 -8 6.68 -8 6 C-6.68 6 -5.36 6 -4 6 C-4 5.34 -4 4.68 -4 4 C-3.34 4 -2.68 4 -2 4 C-2 3.34 -2 2.68 -2 2 C-1.34 2 -0.68 2 0 2 C0 1.34 0 0.68 0 0 Z " fill="#EC8661" transform="translate(70,20)"/>
<path d="M0 0 C0.66 0 1.32 0 2 0 C2 2.64 2 5.28 2 8 C2.66 8 3.32 8 4 8 C4 9.32 4 10.64 4 12 C4.66 12 5.32 12 6 12 C6 12.66 6 13.32 6 14 C6.66 14 7.32 14 8 14 C8 15.32 8 16.64 8 18 C8.66 18 9.32 18 10 18 C10 18.66 10 19.32 10 20 C15.28 20 20.56 20 26 20 C26 19.34 26 18.68 26 18 C26.66 18 27.32 18 28 18 C28 16.68 28 15.36 28 14 C28.66 14 29.32 14 30 14 C30 13.34 30 12.68 30 12 C30.66 12 31.32 12 32 12 C32 10.68 32 9.36 32 8 C32.66 8 33.32 8 34 8 C34 5.36 34 2.72 34 0 C34.66 0 35.32 0 36 0 C36 3.3 36 6.6 36 10 C35.34 10 34.68 10 34 10 C34 13.96 34 17.92 34 22 C33.34 22 32.68 22 32 22 C32 22.66 32 23.32 32 24 C31.34 24 30.68 24 30 24 C30 23.34 30 22.68 30 22 C29.34 22 28.68 22 28 22 C28 22.66 28 23.32 28 24 C27.34 24 26.68 24 26 24 C26 24.66 26 25.32 26 26 C20.72 26 15.44 26 10 26 C10 25.34 10 24.68 10 24 C9.34 24 8.68 24 8 24 C8 23.34 8 22.68 8 22 C7.34 22 6.68 22 6 22 C6 22.66 6 23.32 6 24 C4.68 24 3.36 24 2 24 C2 19.38 2 14.76 2 10 C1.34 10 0.68 10 0 10 C0 6.7 0 3.4 0 0 Z " fill="#F1A376" transform="translate(38,70)"/>
<path d="M0 0 C0.66 0 1.32 0 2 0 C2 2.64 2 5.28 2 8 C3.32 8 4.64 8 6 8 C6 8.66 6 9.32 6 10 C11.28 10 16.56 10 22 10 C22 10.66 22 11.32 22 12 C16.06 12 10.12 12 4 12 C4 11.34 4 10.68 4 10 C3.34 10 2.68 10 2 10 C2 10.66 2 11.32 2 12 C1.34 12 0.68 12 0 12 C0 16.62 0 21.24 0 26 C0.66 26 1.32 26 2 26 C2 28.64 2 31.28 2 34 C1.34 34 0.68 34 0 34 C0 32.68 0 31.36 0 30 C-0.66 30 -1.32 30 -2 30 C-2 29.34 -2 28.68 -2 28 C-2.66 28 -3.32 28 -4 28 C-4 27.34 -4 26.68 -4 26 C-4.66 26 -5.32 26 -6 26 C-6 24.68 -6 23.36 -6 22 C-6.66 22 -7.32 22 -8 22 C-8 17.38 -8 12.76 -8 8 C-6.02 8 -4.04 8 -2 8 C-2 6.68 -2 5.36 -2 4 C-1.34 4 -0.68 4 0 4 C0 2.68 0 1.36 0 0 Z " fill="#703B32" transform="translate(26,42)"/>
<path d="M0 0 C1.32 0 2.64 0 4 0 C4 1.98 4 3.96 4 6 C4.66 6 5.32 6 6 6 C6 4.02 6 2.04 6 0 C9.3 0 12.6 0 16 0 C16 0.66 16 1.32 16 2 C16.66 2 17.32 2 18 2 C18 2.66 18 3.32 18 4 C18.66 4 19.32 4 20 4 C20 3.34 20 2.68 20 2 C20.66 2 21.32 2 22 2 C22 3.32 22 4.64 22 6 C22.66 6 23.32 6 24 6 C24 6.66 24 7.32 24 8 C23.34 8 22.68 8 22 8 C22 8.66 22 9.32 22 10 C21.34 10 20.68 10 20 10 C20 10.66 20 11.32 20 12 C20.66 12 21.32 12 22 12 C22 12.66 22 13.32 22 14 C21.34 14 20.68 14 20 14 C20 14.66 20 15.32 20 16 C19.34 16 18.68 16 18 16 C18 16.66 18 17.32 18 18 C17.34 18 16.68 18 16 18 C16 16.68 16 15.36 16 14 C15.34 14 14.68 14 14 14 C14 13.34 14 12.68 14 12 C15.32 12 16.64 12 18 12 C18 11.34 18 10.68 18 10 C12.72 10 7.44 10 2 10 C2 9.34 2 8.68 2 8 C1.34 8 0.68 8 0 8 C0 5.36 0 2.72 0 0 Z " fill="#E49B7F" transform="translate(30,42)"/>
<path d="M0 0 C0.66 0 1.32 0 2 0 C2 0.66 2 1.32 2 2 C7.28 2 12.56 2 18 2 C18 1.34 18 0.68 18 0 C18.66 0 19.32 0 20 0 C20 1.32 20 2.64 20 4 C19.34 4 18.68 4 18 4 C18 4.66 18 5.32 18 6 C18.66 6 19.32 6 20 6 C20 7.32 20 8.64 20 10 C18.68 10 17.36 10 16 10 C16 9.34 16 8.68 16 8 C12.04 8 8.08 8 4 8 C4 9.32 4 10.64 4 12 C3.34 12 2.68 12 2 12 C2 12.66 2 13.32 2 14 C1.34 14 0.68 14 0 14 C0 13.34 0 12.68 0 12 C-0.66 12 -1.32 12 -2 12 C-2 11.34 -2 10.68 -2 10 C-2.66 10 -3.32 10 -4 10 C-4 7.36 -4 4.72 -4 2 C-2.68 2 -1.36 2 0 2 C0 1.34 0 0.68 0 0 Z " fill="#6B334A" transform="translate(46,72)"/>
<path d="M0 0 C0.66 0 1.32 0 2 0 C2 1.32 2 2.64 2 4 C2.66 4 3.32 4 4 4 C4 4.66 4 5.32 4 6 C5.32 6 6.64 6 8 6 C8 10.62 8 15.24 8 20 C7.34 20 6.68 20 6 20 C6 21.32 6 22.64 6 24 C5.34 24 4.68 24 4 24 C4 24.66 4 25.32 4 26 C3.34 26 2.68 26 2 26 C2 26.66 2 27.32 2 28 C1.34 28 0.68 28 0 28 C0 18.76 0 9.52 0 0 Z " fill="#442D2C" transform="translate(86,44)"/>
<path d="M0 0 C3.96 0 7.92 0 12 0 C12 0.66 12 1.32 12 2 C12.66 2 13.32 2 14 2 C14 2.66 14 3.32 14 4 C17.3 4 20.6 4 24 4 C24 4.66 24 5.32 24 6 C20.7 6 17.4 6 14 6 C14 6.66 14 7.32 14 8 C13.34 8 12.68 8 12 8 C12 8.66 12 9.32 12 10 C11.34 10 10.68 10 10 10 C10 10.66 10 11.32 10 12 C8.68 12 7.36 12 6 12 C6 11.34 6 10.68 6 10 C5.34 10 4.68 10 4 10 C4 9.34 4 8.68 4 8 C3.34 8 2.68 8 2 8 C2 7.34 2 6.68 2 6 C-1.3 6 -4.6 6 -8 6 C-8 5.34 -8 4.68 -8 4 C-4.7 4 -1.4 4 2 4 C2 3.34 2 2.68 2 2 C1.34 2 0.68 2 0 2 C0 1.34 0 0.68 0 0 Z " fill="#F8CD94" transform="translate(48,30)"/>
<path d="M0 0 C0.66 0 1.32 0 2 0 C2 2.64 2 5.28 2 8 C3.32 8 4.64 8 6 8 C6 7.34 6 6.68 6 6 C6.66 6 7.32 6 8 6 C8 5.34 8 4.68 8 4 C9.98 4 11.96 4 14 4 C14 4.66 14 5.32 14 6 C13.34 6 12.68 6 12 6 C12 6.66 12 7.32 12 8 C11.34 8 10.68 8 10 8 C10 8.66 10 9.32 10 10 C9.34 10 8.68 10 8 10 C8 10.66 8 11.32 8 12 C7.34 12 6.68 12 6 12 C6 12.66 6 13.32 6 14 C5.34 14 4.68 14 4 14 C4 14.66 4 15.32 4 16 C4.66 16 5.32 16 6 16 C6 16.66 6 17.32 6 18 C4.68 18 3.36 18 2 18 C2 18.66 2 19.32 2 20 C1.34 20 0.68 20 0 20 C0 17.36 0 14.72 0 12 C-0.66 12 -1.32 12 -2 12 C-2 10.68 -2 9.36 -2 8 C-2.66 8 -3.32 8 -4 8 C-4 9.32 -4 10.64 -4 12 C-4.66 12 -5.32 12 -6 12 C-6 10.02 -6 8.04 -6 6 C-5.34 6 -4.68 6 -4 6 C-4 4.68 -4 3.36 -4 2 C-3.34 2 -2.68 2 -2 2 C-2 2.66 -2 3.32 -2 4 C-1.34 4 -0.68 4 0 4 C0 2.68 0 1.36 0 0 Z " fill="#99473D" transform="translate(28,20)"/>
<path d="M0 0 C1.32 0 2.64 0 4 0 C4 2.64 4 5.28 4 8 C5.32 8 6.64 8 8 8 C8 9.32 8 10.64 8 12 C8.66 12 9.32 12 10 12 C10 13.32 10 14.64 10 16 C8.02 16 6.04 16 4 16 C4 16.66 4 17.32 4 18 C2.68 18 1.36 18 0 18 C0 17.34 0 16.68 0 16 C-1.98 16 -3.96 16 -6 16 C-6 15.34 -6 14.68 -6 14 C-5.34 14 -4.68 14 -4 14 C-4 13.34 -4 12.68 -4 12 C-3.34 12 -2.68 12 -2 12 C-2 11.34 -2 10.68 -2 10 C-2.66 10 -3.32 10 -4 10 C-4 9.34 -4 8.68 -4 8 C-3.34 8 -2.68 8 -2 8 C-2 7.34 -2 6.68 -2 6 C-1.34 6 -0.68 6 0 6 C0 4.02 0 2.04 0 0 Z " fill="#F8C891" transform="translate(54,44)"/>
<path d="M0 0 C0.66 0 1.32 0 2 0 C2 0.66 2 1.32 2 2 C2.66 2 3.32 2 4 2 C4 3.32 4 4.64 4 6 C4.66 6 5.32 6 6 6 C6 6.66 6 7.32 6 8 C6.66 8 7.32 8 8 8 C8 7.34 8 6.68 8 6 C8.66 6 9.32 6 10 6 C10 5.34 10 4.68 10 4 C10.66 4 11.32 4 12 4 C12 8.62 12 13.24 12 18 C12.66 18 13.32 18 14 18 C14 19.32 14 20.64 14 22 C14.66 22 15.32 22 16 22 C16 22.66 16 23.32 16 24 C16.66 24 17.32 24 18 24 C18 24.66 18 25.32 18 26 C18.66 26 19.32 26 20 26 C20 26.66 20 27.32 20 28 C20.66 28 21.32 28 22 28 C22 28.66 22 29.32 22 30 C20.68 30 19.36 30 18 30 C18 29.34 18 28.68 18 28 C17.34 28 16.68 28 16 28 C16 27.34 16 26.68 16 26 C15.34 26 14.68 26 14 26 C14 25.34 14 24.68 14 24 C13.34 24 12.68 24 12 24 C12 23.34 12 22.68 12 22 C11.34 22 10.68 22 10 22 C10 20.02 10 18.04 10 16 C9.34 16 8.68 16 8 16 C8 14.02 8 12.04 8 10 C7.34 10 6.68 10 6 10 C6 10.66 6 11.32 6 12 C5.34 12 4.68 12 4 12 C4 10.68 4 9.36 4 8 C3.34 8 2.68 8 2 8 C2 6.68 2 5.36 2 4 C1.34 4 0.68 4 0 4 C0 2.68 0 1.36 0 0 Z " fill="#895F55" transform="translate(28,76)"/>
<path d="M0 0 C3.96 0 7.92 0 12 0 C12 0.66 12 1.32 12 2 C12.66 2 13.32 2 14 2 C14 2.66 14 3.32 14 4 C14.66 4 15.32 4 16 4 C16 4.66 16 5.32 16 6 C15.34 6 14.68 6 14 6 C14 6.66 14 7.32 14 8 C9.38 8 4.76 8 0 8 C0 9.32 0 10.64 0 12 C-0.66 12 -1.32 12 -2 12 C-2 11.34 -2 10.68 -2 10 C-2.66 10 -3.32 10 -4 10 C-4 9.34 -4 8.68 -4 8 C-3.34 8 -2.68 8 -2 8 C-2 7.34 -2 6.68 -2 6 C1.3 6 4.6 6 8 6 C8 5.34 8 4.68 8 4 C4.7 4 1.4 4 -2 4 C-2 3.34 -2 2.68 -2 2 C-1.34 2 -0.68 2 0 2 C0 1.34 0 0.68 0 0 Z " fill="#4B2C2E" transform="translate(64,30)"/>
<path d="M0 0 C3.96 0 7.92 0 12 0 C12 0.66 12 1.32 12 2 C12.66 2 13.32 2 14 2 C14 2.66 14 3.32 14 4 C10.7 4 7.4 4 4 4 C4 4.66 4 5.32 4 6 C7.3 6 10.6 6 14 6 C14 6.66 14 7.32 14 8 C14.66 8 15.32 8 16 8 C16 8.66 16 9.32 16 10 C15.34 10 14.68 10 14 10 C14 10.66 14 11.32 14 12 C13.34 12 12.68 12 12 12 C12 10.68 12 9.36 12 8 C7.38 8 2.76 8 -2 8 C-2 7.34 -2 6.68 -2 6 C-2.66 6 -3.32 6 -4 6 C-4 5.34 -4 4.68 -4 4 C-3.34 4 -2.68 4 -2 4 C-2 3.34 -2 2.68 -2 2 C-1.34 2 -0.68 2 0 2 C0 1.34 0 0.68 0 0 Z " fill="#4B2C2E" transform="translate(36,30)"/>
<path d="M0 0 C0.66 0 1.32 0 2 0 C2 2.64 2 5.28 2 8 C2.66 8 3.32 8 4 8 C4 9.32 4 10.64 4 12 C4.66 12 5.32 12 6 12 C6 12.66 6 13.32 6 14 C6.66 14 7.32 14 8 14 C8 15.32 8 16.64 8 18 C8.66 18 9.32 18 10 18 C10 18.66 10 19.32 10 20 C9.34 20 8.68 20 8 20 C8 20.66 8 21.32 8 22 C7.34 22 6.68 22 6 22 C6 22.66 6 23.32 6 24 C4.68 24 3.36 24 2 24 C2 19.38 2 14.76 2 10 C1.34 10 0.68 10 0 10 C0 6.7 0 3.4 0 0 Z " fill="#E2BF92" transform="translate(38,70)"/>
<path d="M0 0 C0.66 0 1.32 0 2 0 C2 3.3 2 6.6 2 10 C1.34 10 0.68 10 0 10 C0 13.96 0 17.92 0 22 C-0.66 22 -1.32 22 -2 22 C-2 22.66 -2 23.32 -2 24 C-2.66 24 -3.32 24 -4 24 C-4 23.34 -4 22.68 -4 22 C-4.66 22 -5.32 22 -6 22 C-6 21.34 -6 20.68 -6 20 C-6.66 20 -7.32 20 -8 20 C-8 19.34 -8 18.68 -8 18 C-7.34 18 -6.68 18 -6 18 C-6 16.68 -6 15.36 -6 14 C-5.34 14 -4.68 14 -4 14 C-4 13.34 -4 12.68 -4 12 C-3.34 12 -2.68 12 -2 12 C-2 10.68 -2 9.36 -2 8 C-1.34 8 -0.68 8 0 8 C0 5.36 0 2.72 0 0 Z " fill="#E2C295" transform="translate(72,70)"/>
<path d="M0 0 C7.92 0 15.84 0 24 0 C24 0.66 24 1.32 24 2 C24.66 2 25.32 2 26 2 C26 2.66 26 3.32 26 4 C24.68 4 23.36 4 22 4 C22 3.34 22 2.68 22 2 C21.34 2 20.68 2 20 2 C20 2.66 20 3.32 20 4 C14.72 4 9.44 4 4 4 C4 3.34 4 2.68 4 2 C3.34 2 2.68 2 2 2 C2 2.66 2 3.32 2 4 C1.34 4 0.68 4 0 4 C0 2.68 0 1.36 0 0 Z " fill="#B87E77" transform="translate(44,70)"/>
<path d="M0 0 C0.66 0 1.32 0 2 0 C2 0.66 2 1.32 2 2 C7.28 2 12.56 2 18 2 C18 1.34 18 0.68 18 0 C18.66 0 19.32 0 20 0 C20 1.32 20 2.64 20 4 C19.34 4 18.68 4 18 4 C18 4.66 18 5.32 18 6 C16.02 6 14.04 6 12 6 C12 6.66 12 7.32 12 8 C10.68 8 9.36 8 8 8 C8 7.34 8 6.68 8 6 C6.02 6 4.04 6 2 6 C2 5.34 2 4.68 2 4 C1.34 4 0.68 4 0 4 C0 2.68 0 1.36 0 0 Z " fill="#B5705A" transform="translate(46,94)"/>
<path d="M0 0 C5.28 0 10.56 0 16 0 C16 0.66 16 1.32 16 2 C16.66 2 17.32 2 18 2 C18 3.32 18 4.64 18 6 C16.68 6 15.36 6 14 6 C14 5.34 14 4.68 14 4 C10.04 4 6.08 4 2 4 C2 4.66 2 5.32 2 6 C0.68 6 -0.64 6 -2 6 C-2 4.68 -2 3.36 -2 2 C-1.34 2 -0.68 2 0 2 C0 1.34 0 0.68 0 0 Z " fill="#000000" transform="translate(48,76)"/>
<path d="M0 0 C1.98 0 3.96 0 6 0 C6 0.66 6 1.32 6 2 C11.28 2 16.56 2 22 2 C22 1.34 22 0.68 22 0 C23.32 0 24.64 0 26 0 C26 0.66 26 1.32 26 2 C25.34 2 24.68 2 24 2 C24 3.32 24 4.64 24 6 C22.68 6 21.36 6 20 6 C20 5.34 20 4.68 20 4 C12.74 4 5.48 4 -2 4 C-2 3.34 -2 2.68 -2 2 C-1.34 2 -0.68 2 0 2 C0 1.34 0 0.68 0 0 Z " fill="#D67354" transform="translate(40,26)"/>
<path d="M0 0 C0.66 0 1.32 0 2 0 C2 0.66 2 1.32 2 2 C2.66 2 3.32 2 4 2 C4 3.32 4 4.64 4 6 C3.34 6 2.68 6 2 6 C2 7.32 2 8.64 2 10 C1.34 10 0.68 10 0 10 C0 11.32 0 12.64 0 14 C-0.66 14 -1.32 14 -2 14 C-2 14.66 -2 15.32 -2 16 C-2.66 16 -3.32 16 -4 16 C-4 16.66 -4 17.32 -4 18 C-4.66 18 -5.32 18 -6 18 C-6 18.66 -6 19.32 -6 20 C-7.32 20 -8.64 20 -10 20 C-10 19.34 -10 18.68 -10 18 C-9.34 18 -8.68 18 -8 18 C-8 17.34 -8 16.68 -8 16 C-7.34 16 -6.68 16 -6 16 C-6 15.34 -6 14.68 -6 14 C-5.34 14 -4.68 14 -4 14 C-4 12.68 -4 11.36 -4 10 C-3.34 10 -2.68 10 -2 10 C-2 8.68 -2 7.36 -2 6 C-1.34 6 -0.68 6 0 6 C0 4.02 0 2.04 0 0 Z " fill="#41302D" transform="translate(76,86)"/>
<path d="M0 0 C1.32 0 2.64 0 4 0 C4 0.66 4 1.32 4 2 C4.66 2 5.32 2 6 2 C6 2.66 6 3.32 6 4 C6.66 4 7.32 4 8 4 C8 4.66 8 5.32 8 6 C8.66 6 9.32 6 10 6 C10 7.98 10 9.96 10 12 C9.34 12 8.68 12 8 12 C8 11.34 8 10.68 8 10 C7.34 10 6.68 10 6 10 C6 11.32 6 12.64 6 14 C5.34 14 4.68 14 4 14 C4 13.34 4 12.68 4 12 C3.34 12 2.68 12 2 12 C2 11.34 2 10.68 2 10 C1.34 10 0.68 10 0 10 C0 8.68 0 7.36 0 6 C0.66 6 1.32 6 2 6 C2 6.66 2 7.32 2 8 C2.66 8 3.32 8 4 8 C4 6.68 4 5.36 4 4 C3.34 4 2.68 4 2 4 C2 3.34 2 2.68 2 2 C1.34 2 0.68 2 0 2 C0 1.34 0 0.68 0 0 Z " fill="#895F55" transform="translate(78,12)"/>
<path d="M0 0 C0.66 0 1.32 0 2 0 C2 1.98 2 3.96 2 6 C2.66 6 3.32 6 4 6 C4 7.98 4 9.96 4 12 C4.66 12 5.32 12 6 12 C6 12.66 6 13.32 6 14 C6.66 14 7.32 14 8 14 C8 14.66 8 15.32 8 16 C8.66 16 9.32 16 10 16 C10 16.66 10 17.32 10 18 C10.66 18 11.32 18 12 18 C12 18.66 12 19.32 12 20 C10.68 20 9.36 20 8 20 C8 19.34 8 18.68 8 18 C7.34 18 6.68 18 6 18 C6 17.34 6 16.68 6 16 C5.34 16 4.68 16 4 16 C4 15.34 4 14.68 4 14 C3.34 14 2.68 14 2 14 C2 12.68 2 11.36 2 10 C1.34 10 0.68 10 0 10 C0 8.68 0 7.36 0 6 C-0.66 6 -1.32 6 -2 6 C-2 4.68 -2 3.36 -2 2 C-1.34 2 -0.68 2 0 2 C0 1.34 0 0.68 0 0 Z " fill="#41302D" transform="translate(34,86)"/>
<path d="M0 0 C0.66 0 1.32 0 2 0 C2 1.98 2 3.96 2 6 C1.34 6 0.68 6 0 6 C0 7.32 0 8.64 0 10 C-0.66 10 -1.32 10 -2 10 C-2 11.98 -2 13.96 -2 16 C-2.66 16 -3.32 16 -4 16 C-4 16.66 -4 17.32 -4 18 C-4.66 18 -5.32 18 -6 18 C-6 17.34 -6 16.68 -6 16 C-6.66 16 -7.32 16 -8 16 C-8 14.68 -8 13.36 -8 12 C-7.34 12 -6.68 12 -6 12 C-6 11.34 -6 10.68 -6 10 C-5.34 10 -4.68 10 -4 10 C-4 8.68 -4 7.36 -4 6 C-3.34 6 -2.68 6 -2 6 C-2 4.68 -2 3.36 -2 2 C-1.34 2 -0.68 2 0 2 C0 1.34 0 0.68 0 0 Z " fill="#895F55" transform="translate(84,70)"/>
<path d="M0 0 C0.66 0 1.32 0 2 0 C2 1.32 2 2.64 2 4 C1.34 4 0.68 4 0 4 C0 4.66 0 5.32 0 6 C-0.66 6 -1.32 6 -2 6 C-2 6.66 -2 7.32 -2 8 C-3.32 8 -4.64 8 -6 8 C-6 8.66 -6 9.32 -6 10 C-8.64 10 -11.28 10 -14 10 C-14 9.34 -14 8.68 -14 8 C-12.02 8 -10.04 8 -8 8 C-8 7.34 -8 6.68 -8 6 C-8.66 6 -9.32 6 -10 6 C-10 5.34 -10 4.68 -10 4 C-8.68 4 -7.36 4 -6 4 C-6 3.34 -6 2.68 -6 2 C-4.02 2 -2.04 2 0 2 C0 1.34 0 0.68 0 0 Z " fill="#895F55" transform="translate(68,10)"/>
<path d="M0 0 C1.32 0 2.64 0 4 0 C4 5.28 4 10.56 4 16 C3.34 16 2.68 16 2 16 C2 15.34 2 14.68 2 14 C1.34 14 0.68 14 0 14 C0 9.38 0 4.76 0 0 Z " fill="#9C343A" transform="translate(18,50)"/>
<path d="M0 0 C1.32 0 2.64 0 4 0 C4 1.98 4 3.96 4 6 C4.66 6 5.32 6 6 6 C6 8.64 6 11.28 6 14 C5.34 14 4.68 14 4 14 C4 12.68 4 11.36 4 10 C3.34 10 2.68 10 2 10 C2 9.34 2 8.68 2 8 C1.34 8 0.68 8 0 8 C0 7.34 0 6.68 0 6 C-0.66 6 -1.32 6 -2 6 C-2 5.34 -2 4.68 -2 4 C-1.34 4 -0.68 4 0 4 C0 2.68 0 1.36 0 0 Z " fill="#8D3A3C" transform="translate(22,62)"/>
<path d="M0 0 C0.66 0 1.32 0 2 0 C2 4.62 2 9.24 2 14 C1.34 14 0.68 14 0 14 C0 15.32 0 16.64 0 18 C-0.66 18 -1.32 18 -2 18 C-2 18.66 -2 19.32 -2 20 C-2.66 20 -3.32 20 -4 20 C-4 18.02 -4 16.04 -4 14 C-3.34 14 -2.68 14 -2 14 C-2 13.34 -2 12.68 -2 12 C-1.34 12 -0.68 12 0 12 C0 9.36 0 6.72 0 4 C-0.66 4 -1.32 4 -2 4 C-2 3.34 -2 2.68 -2 2 C-1.34 2 -0.68 2 0 2 C0 1.34 0 0.68 0 0 Z " fill="#C5634C" transform="translate(92,50)"/>
<path d="M0 0 C0.66 0 1.32 0 2 0 C2 0.66 2 1.32 2 2 C2.66 2 3.32 2 4 2 C4 7.28 4 12.56 4 18 C3.34 18 2.68 18 2 18 C2 18.66 2 19.32 2 20 C1.34 20 0.68 20 0 20 C0 18.68 0 17.36 0 16 C0.66 16 1.32 16 2 16 C2 12.7 2 9.4 2 6 C1.34 6 0.68 6 0 6 C0 5.34 0 4.68 0 4 C-0.66 4 -1.32 4 -2 4 C-2 3.34 -2 2.68 -2 2 C-1.34 2 -0.68 2 0 2 C0 1.34 0 0.68 0 0 Z " fill="#EC8661" transform="translate(82,52)"/>
<path d="M0 0 C0.66 0 1.32 0 2 0 C2 5.28 2 10.56 2 16 C0.68 16 -0.64 16 -2 16 C-2 12.04 -2 8.08 -2 4 C-1.34 4 -0.68 4 0 4 C0 2.68 0 1.36 0 0 Z " fill="#41302D" transform="translate(24,46)"/>
<path d="M0 0 C1.32 0 2.64 0 4 0 C4 2.64 4 5.28 4 8 C3.34 8 2.68 8 2 8 C2 8.66 2 9.32 2 10 C1.34 10 0.68 10 0 10 C0 10.66 0 11.32 0 12 C-0.66 12 -1.32 12 -2 12 C-2 11.34 -2 10.68 -2 10 C-2.66 10 -3.32 10 -4 10 C-4 9.34 -4 8.68 -4 8 C-2.68 8 -1.36 8 0 8 C0 6.68 0 5.36 0 4 C-0.66 4 -1.32 4 -2 4 C-2 3.34 -2 2.68 -2 2 C-1.34 2 -0.68 2 0 2 C0 1.34 0 0.68 0 0 Z " fill="#6A1B36" transform="translate(66,74)"/>
<path d="M0 0 C0.66 0 1.32 0 2 0 C2 0.66 2 1.32 2 2 C2.66 2 3.32 2 4 2 C4 2.66 4 3.32 4 4 C4.66 4 5.32 4 6 4 C6 5.32 6 6.64 6 8 C2.7 8 -0.6 8 -4 8 C-4 7.34 -4 6.68 -4 6 C-3.34 6 -2.68 6 -2 6 C-2 4.68 -2 3.36 -2 2 C-1.34 2 -0.68 2 0 2 C0 1.34 0 0.68 0 0 Z " fill="#F9D298" transform="translate(68,22)"/>
<path d="M0 0 C1.32 0 2.64 0 4 0 C4 0.66 4 1.32 4 2 C3.34 2 2.68 2 2 2 C2 2.66 2 3.32 2 4 C1.34 4 0.68 4 0 4 C0 5.32 0 6.64 0 8 C-3.96 8 -7.92 8 -12 8 C-12 7.34 -12 6.68 -12 6 C-10.02 6 -8.04 6 -6 6 C-6 5.34 -6 4.68 -6 4 C-4.68 4 -3.36 4 -2 4 C-2 3.34 -2 2.68 -2 2 C-1.34 2 -0.68 2 0 2 C0 1.34 0 0.68 0 0 Z " fill="#110907" transform="translate(62,20)"/>
<path d="M0 0 C0.66 0 1.32 0 2 0 C2 2.64 2 5.28 2 8 C1.34 8 0.68 8 0 8 C0 8.66 0 9.32 0 10 C-0.66 10 -1.32 10 -2 10 C-2 12.64 -2 15.28 -2 18 C-2.66 18 -3.32 18 -4 18 C-4 14.04 -4 10.08 -4 6 C-2.68 6 -1.36 6 0 6 C0 4.02 0 2.04 0 0 Z " fill="#73172C" transform="translate(90,54)"/>
<path d="M0 0 C0.66 0 1.32 0 2 0 C2 1.32 2 2.64 2 4 C3.32 4 4.64 4 6 4 C6 5.32 6 6.64 6 8 C6.66 8 7.32 8 8 8 C8 8.66 8 9.32 8 10 C6.02 10 4.04 10 2 10 C2 9.34 2 8.68 2 8 C0.68 8 -0.64 8 -2 8 C-2 7.34 -2 6.68 -2 6 C-1.34 6 -0.68 6 0 6 C0 4.02 0 2.04 0 0 Z " fill="#FEF5E6" transform="translate(56,48)"/>
<path d="M0 0 C1.32 0 2.64 0 4 0 C4 2.64 4 5.28 4 8 C3.34 8 2.68 8 2 8 C2 8.66 2 9.32 2 10 C0.02 10 -1.96 10 -4 10 C-4 9.34 -4 8.68 -4 8 C-3.34 8 -2.68 8 -2 8 C-2 7.34 -2 6.68 -2 6 C-1.34 6 -0.68 6 0 6 C0 4.02 0 2.04 0 0 Z " fill="#A07769" transform="translate(78,42)"/>
<path d="M0 0 C1.32 0 2.64 0 4 0 C4 1.98 4 3.96 4 6 C4.66 6 5.32 6 6 6 C6 6.66 6 7.32 6 8 C6.66 8 7.32 8 8 8 C8 8.66 8 9.32 8 10 C6.02 10 4.04 10 2 10 C2 9.34 2 8.68 2 8 C1.34 8 0.68 8 0 8 C0 5.36 0 2.72 0 0 Z " fill="#A07769" transform="translate(30,42)"/>
<path d="M0 0 C0.66 0 1.32 0 2 0 C2 1.98 2 3.96 2 6 C1.34 6 0.68 6 0 6 C0 7.32 0 8.64 0 10 C-0.66 10 -1.32 10 -2 10 C-2 9.34 -2 8.68 -2 8 C-2.66 8 -3.32 8 -4 8 C-4 9.32 -4 10.64 -4 12 C-4.66 12 -5.32 12 -6 12 C-6 10.02 -6 8.04 -6 6 C-5.34 6 -4.68 6 -4 6 C-4 4.68 -4 3.36 -4 2 C-3.34 2 -2.68 2 -2 2 C-2 2.66 -2 3.32 -2 4 C-1.34 4 -0.68 4 0 4 C0 2.68 0 1.36 0 0 Z " fill="#895F55" transform="translate(28,20)"/>
<path d="M0 0 C0.66 0 1.32 0 2 0 C2 0.66 2 1.32 2 2 C2.66 2 3.32 2 4 2 C4 1.34 4 0.68 4 0 C7.3 0 10.6 0 14 0 C14 0.66 14 1.32 14 2 C11.36 2 8.72 2 6 2 C6 2.66 6 3.32 6 4 C5.34 4 4.68 4 4 4 C4 4.66 4 5.32 4 6 C3.34 6 2.68 6 2 6 C2 5.34 2 4.68 2 4 C1.34 4 0.68 4 0 4 C0 2.68 0 1.36 0 0 Z " fill="#A9513F" transform="translate(60,40)"/>
<path d="M0 0 C0.66 0 1.32 0 2 0 C2 0.66 2 1.32 2 2 C3.32 2 4.64 2 6 2 C6 1.34 6 0.68 6 0 C6.66 0 7.32 0 8 0 C8 2.64 8 5.28 8 8 C7.34 8 6.68 8 6 8 C6 6.68 6 5.36 6 4 C4.68 4 3.36 4 2 4 C2 5.32 2 6.64 2 8 C1.34 8 0.68 8 0 8 C0 5.36 0 2.72 0 0 Z " fill="#41302D" transform="translate(52,40)"/>
<path d="M0 0 C3.3 0 6.6 0 10 0 C10 0.66 10 1.32 10 2 C10.66 2 11.32 2 12 2 C12 1.34 12 0.68 12 0 C12.66 0 13.32 0 14 0 C14 1.32 14 2.64 14 4 C13.34 4 12.68 4 12 4 C12 4.66 12 5.32 12 6 C11.34 6 10.68 6 10 6 C10 5.34 10 4.68 10 4 C9.34 4 8.68 4 8 4 C8 3.34 8 2.68 8 2 C5.36 2 2.72 2 0 2 C0 1.34 0 0.68 0 0 Z " fill="#A9513F" transform="translate(38,40)"/>
<path d="M0 0 C3.96 0 7.92 0 12 0 C12 0.66 12 1.32 12 2 C10.68 2 9.36 2 8 2 C8 3.32 8 4.64 8 6 C7.34 6 6.68 6 6 6 C6 5.34 6 4.68 6 4 C5.34 4 4.68 4 4 4 C4 3.34 4 2.68 4 2 C2.68 2 1.36 2 0 2 C0 1.34 0 0.68 0 0 Z " fill="#790C2B" transform="translate(50,80)"/>
<path d="M0 0 C0.66 0 1.32 0 2 0 C2 1.32 2 2.64 2 4 C-3.28 4 -8.56 4 -14 4 C-14 3.34 -14 2.68 -14 2 C-9.38 2 -4.76 2 0 2 C0 1.34 0 0.68 0 0 Z " fill="#415C70" transform="translate(64,72)"/>
<path d="M0 0 C0.66 0 1.32 0 2 0 C2 0.66 2 1.32 2 2 C2.66 2 3.32 2 4 2 C4 2.66 4 3.32 4 4 C4.66 4 5.32 4 6 4 C6 4.66 6 5.32 6 6 C6.66 6 7.32 6 8 6 C8 6.66 8 7.32 8 8 C7.34 8 6.68 8 6 8 C6 8.66 6 9.32 6 10 C5.34 10 4.68 10 4 10 C4 9.34 4 8.68 4 8 C3.34 8 2.68 8 2 8 C2 6.68 2 5.36 2 4 C1.34 4 0.68 4 0 4 C0 2.68 0 1.36 0 0 Z " fill="#EC8661" transform="translate(30,74)"/>
<path d="M0 0 C1.98 0 3.96 0 6 0 C6 0.66 6 1.32 6 2 C7.32 2 8.64 2 10 2 C10 1.34 10 0.68 10 0 C11.32 0 12.64 0 14 0 C14 0.66 14 1.32 14 2 C13.34 2 12.68 2 12 2 C12 2.66 12 3.32 12 4 C9.36 4 6.72 4 4 4 C4 3.34 4 2.68 4 2 C2.68 2 1.36 2 0 2 C0 1.34 0 0.68 0 0 Z " fill="#3A1019" transform="translate(48,60)"/>
<path d="M0 0 C3.96 0 7.92 0 12 0 C12 0.66 12 1.32 12 2 C8.7 2 5.4 2 2 2 C2 2.66 2 3.32 2 4 C1.34 4 0.68 4 0 4 C0 4.66 0 5.32 0 6 C-0.66 6 -1.32 6 -2 6 C-2 4.68 -2 3.36 -2 2 C-1.34 2 -0.68 2 0 2 C0 1.34 0 0.68 0 0 Z " fill="#EC8661" transform="translate(60,34)"/>
<path d="M0 0 C3.96 0 7.92 0 12 0 C12 0.66 12 1.32 12 2 C12.66 2 13.32 2 14 2 C14 3.32 14 4.64 14 6 C13.34 6 12.68 6 12 6 C12 5.34 12 4.68 12 4 C11.34 4 10.68 4 10 4 C10 3.34 10 2.68 10 2 C6.7 2 3.4 2 0 2 C0 1.34 0 0.68 0 0 Z " fill="#EC8661" transform="translate(40,34)"/>
<path d="M0 0 C0.66 0 1.32 0 2 0 C2 3.3 2 6.6 2 10 C1.34 10 0.68 10 0 10 C0 9.34 0 8.68 0 8 C-0.66 8 -1.32 8 -2 8 C-2 7.34 -2 6.68 -2 6 C-2.66 6 -3.32 6 -4 6 C-4 5.34 -4 4.68 -4 4 C-3.34 4 -2.68 4 -2 4 C-2 3.34 -2 2.68 -2 2 C-1.34 2 -0.68 2 0 2 C0 1.34 0 0.68 0 0 Z " fill="#41302D" transform="translate(90,32)"/>
<path d="M0 0 C0.66 0 1.32 0 2 0 C2 0.66 2 1.32 2 2 C3.32 2 4.64 2 6 2 C6 2.66 6 3.32 6 4 C5.34 4 4.68 4 4 4 C4 4.66 4 5.32 4 6 C3.34 6 2.68 6 2 6 C2 7.32 2 8.64 2 10 C1.34 10 0.68 10 0 10 C0 8.68 0 7.36 0 6 C-0.66 6 -1.32 6 -2 6 C-2 5.34 -2 4.68 -2 4 C-1.34 4 -0.68 4 0 4 C0 2.68 0 1.36 0 0 Z " fill="#601C2B" transform="translate(28,26)"/>
<path d="M0 0 C2.64 0 5.28 0 8 0 C8 0.66 8 1.32 8 2 C7.34 2 6.68 2 6 2 C6 2.66 6 3.32 6 4 C2.7 4 -0.6 4 -4 4 C-4 3.34 -4 2.68 -4 2 C-2.68 2 -1.36 2 0 2 C0 1.34 0 0.68 0 0 Z " fill="#895F55" transform="translate(48,12)"/>
<path d="M0 0 C0.66 0 1.32 0 2 0 C2 0.66 2 1.32 2 2 C2.66 2 3.32 2 4 2 C4 1.34 4 0.68 4 0 C4.66 0 5.32 0 6 0 C6 0.66 6 1.32 6 2 C6.66 2 7.32 2 8 2 C8 2.66 8 3.32 8 4 C4.04 4 0.08 4 -4 4 C-4 3.34 -4 2.68 -4 2 C-2.68 2 -1.36 2 0 2 C0 1.34 0 0.68 0 0 Z " fill="#895F55" transform="translate(54,104)"/>
<path d="M0 0 C3.96 0 7.92 0 12 0 C12 0.66 12 1.32 12 2 C10.68 2 9.36 2 8 2 C8 2.66 8 3.32 8 4 C6.68 4 5.36 4 4 4 C4 3.34 4 2.68 4 2 C2.68 2 1.36 2 0 2 C0 1.34 0 0.68 0 0 Z " fill="#41302D" transform="translate(50,98)"/>
<path d="M0 0 C0.66 0 1.32 0 2 0 C2 1.98 2 3.96 2 6 C1.34 6 0.68 6 0 6 C0 6.66 0 7.32 0 8 C-0.66 8 -1.32 8 -2 8 C-2 9.32 -2 10.64 -2 12 C-2.66 12 -3.32 12 -4 12 C-4 10.02 -4 8.04 -4 6 C-3.34 6 -2.68 6 -2 6 C-2 5.34 -2 4.68 -2 4 C-1.34 4 -0.68 4 0 4 C0 2.68 0 1.36 0 0 Z " fill="#EC8661" transform="translate(78,74)"/>
<path d="M0 0 C0.66 0 1.32 0 2 0 C2 0.66 2 1.32 2 2 C2.66 2 3.32 2 4 2 C4 2.66 4 3.32 4 4 C3.34 4 2.68 4 2 4 C2 4.66 2 5.32 2 6 C1.34 6 0.68 6 0 6 C0 6.66 0 7.32 0 8 C-0.66 8 -1.32 8 -2 8 C-2 6.68 -2 5.36 -2 4 C-2.66 4 -3.32 4 -4 4 C-4 3.34 -4 2.68 -4 2 C-2.68 2 -1.36 2 0 2 C0 1.34 0 0.68 0 0 Z " fill="#EC8661" transform="translate(48,52)"/>
<path d="M0 0 C0.66 0 1.32 0 2 0 C2 3.3 2 6.6 2 10 C1.34 10 0.68 10 0 10 C0 10.66 0 11.32 0 12 C-0.66 12 -1.32 12 -2 12 C-2 10.68 -2 9.36 -2 8 C-1.34 8 -0.68 8 0 8 C0 5.36 0 2.72 0 0 Z " fill="#EC8661" transform="translate(72,70)"/>
<path d="M0 0 C0.66 0 1.32 0 2 0 C2 2.64 2 5.28 2 8 C2.66 8 3.32 8 4 8 C4 9.32 4 10.64 4 12 C3.34 12 2.68 12 2 12 C2 11.34 2 10.68 2 10 C1.34 10 0.68 10 0 10 C0 6.7 0 3.4 0 0 Z " fill="#EC8661" transform="translate(38,70)"/>
<path d="M0 0 C0.66 0 1.32 0 2 0 C2 0.66 2 1.32 2 2 C2.66 2 3.32 2 4 2 C4 3.98 4 5.96 4 8 C3.34 8 2.68 8 2 8 C2 7.34 2 6.68 2 6 C1.34 6 0.68 6 0 6 C0 5.34 0 4.68 0 4 C-0.66 4 -1.32 4 -2 4 C-2 3.34 -2 2.68 -2 2 C-1.34 2 -0.68 2 0 2 C0 1.34 0 0.68 0 0 Z " fill="#EC8661" transform="translate(68,62)"/>
<path d="M0 0 C0.66 0 1.32 0 2 0 C2 1.32 2 2.64 2 4 C2.66 4 3.32 4 4 4 C4 4.66 4 5.32 4 6 C1.36 6 -1.28 6 -4 6 C-4 5.34 -4 4.68 -4 4 C-3.34 4 -2.68 4 -2 4 C-2 3.34 -2 2.68 -2 2 C-1.34 2 -0.68 2 0 2 C0 1.34 0 0.68 0 0 Z " fill="#983735" transform="translate(64,58)"/>
<path d="M0 0 C0.66 0 1.32 0 2 0 C2 2.64 2 5.28 2 8 C1.34 8 0.68 8 0 8 C0 7.34 0 6.68 0 6 C-0.66 6 -1.32 6 -2 6 C-2 6.66 -2 7.32 -2 8 C-2.66 8 -3.32 8 -4 8 C-4 6.68 -4 5.36 -4 4 C-2.68 4 -1.36 4 0 4 C0 2.68 0 1.36 0 0 Z " fill="#964537" transform="translate(84,46)"/>
<path d="M0 0 C0.66 0 1.32 0 2 0 C2 0.66 2 1.32 2 2 C2.66 2 3.32 2 4 2 C4 3.32 4 4.64 4 6 C3.34 6 2.68 6 2 6 C2 7.32 2 8.64 2 10 C1.34 10 0.68 10 0 10 C0 6.7 0 3.4 0 0 Z " fill="#41302D" transform="translate(20,36)"/>
<path d="M0 0 C1.32 0 2.64 0 4 0 C4 0.66 4 1.32 4 2 C3.34 2 2.68 2 2 2 C2 3.32 2 4.64 2 6 C0.68 6 -0.64 6 -2 6 C-2 5.34 -2 4.68 -2 4 C-2.66 4 -3.32 4 -4 4 C-4 3.34 -4 2.68 -4 2 C-2.68 2 -1.36 2 0 2 C0 1.34 0 0.68 0 0 Z " fill="#EE9169" transform="translate(62,26)"/>
<path d="M0 0 C0.66 0 1.32 0 2 0 C2 1.98 2 3.96 2 6 C1.34 6 0.68 6 0 6 C0 7.32 0 8.64 0 10 C-0.66 10 -1.32 10 -2 10 C-2 8.02 -2 6.04 -2 4 C-1.34 4 -0.68 4 0 4 C0 2.68 0 1.36 0 0 Z " fill="#41302D" transform="translate(84,76)"/>
<path d="M0 0 C0.66 0 1.32 0 2 0 C2 1.32 2 2.64 2 4 C1.34 4 0.68 4 0 4 C0 4.66 0 5.32 0 6 C-0.66 6 -1.32 6 -2 6 C-2 6.66 -2 7.32 -2 8 C-2.66 8 -3.32 8 -4 8 C-4 6.68 -4 5.36 -4 4 C-3.34 4 -2.68 4 -2 4 C-2 3.34 -2 2.68 -2 2 C-1.34 2 -0.68 2 0 2 C0 1.34 0 0.68 0 0 Z " fill="#EC8661" transform="translate(44,62)"/>
<path d="M0 0 C0.66 0 1.32 0 2 0 C2 1.98 2 3.96 2 6 C2.66 6 3.32 6 4 6 C4 7.32 4 8.64 4 10 C3.34 10 2.68 10 2 10 C2 9.34 2 8.68 2 8 C1.34 8 0.68 8 0 8 C0 5.36 0 2.72 0 0 Z " fill="#E07B5A" transform="translate(18,56)"/>
<path d="M0 0 C1.98 0 3.96 0 6 0 C6 1.32 6 2.64 6 4 C4.02 4 2.04 4 0 4 C0 2.68 0 1.36 0 0 Z " fill="#703235" transform="translate(66,44)"/>
<path d="M0 0 C1.98 0 3.96 0 6 0 C6 1.32 6 2.64 6 4 C4.02 4 2.04 4 0 4 C0 2.68 0 1.36 0 0 Z " fill="#703235" transform="translate(40,44)"/>
<path d="M0 0 C0.66 0 1.32 0 2 0 C2 1.32 2 2.64 2 4 C2.66 4 3.32 4 4 4 C4 5.32 4 6.64 4 8 C3.34 8 2.68 8 2 8 C2 7.34 2 6.68 2 6 C0.68 6 -0.64 6 -2 6 C-2 5.34 -2 4.68 -2 4 C-1.34 4 -0.68 4 0 4 C0 2.68 0 1.36 0 0 Z " fill="#92574B" transform="translate(80,32)"/>
<path d="M0 0 C0.66 0 1.32 0 2 0 C2 3.3 2 6.6 2 10 C1.34 10 0.68 10 0 10 C0 8.02 0 6.04 0 4 C-0.66 4 -1.32 4 -2 4 C-2 3.34 -2 2.68 -2 2 C-1.34 2 -0.68 2 0 2 C0 1.34 0 0.68 0 0 Z " fill="#41302D" transform="translate(30,16)"/>
<path d="M0 0 C0.66 0 1.32 0 2 0 C2 1.32 2 2.64 2 4 C1.34 4 0.68 4 0 4 C0 4.66 0 5.32 0 6 C-0.66 6 -1.32 6 -2 6 C-2 5.34 -2 4.68 -2 4 C-2.66 4 -3.32 4 -4 4 C-4 3.34 -4 2.68 -4 2 C-2.68 2 -1.36 2 0 2 C0 1.34 0 0.68 0 0 Z " fill="#895F55" transform="translate(64,94)"/>
<path d="M0 0 C0.66 0 1.32 0 2 0 C2 0.66 2 1.32 2 2 C3.32 2 4.64 2 6 2 C6 2.66 6 3.32 6 4 C5.34 4 4.68 4 4 4 C4 4.66 4 5.32 4 6 C3.34 6 2.68 6 2 6 C2 5.34 2 4.68 2 4 C1.34 4 0.68 4 0 4 C0 2.68 0 1.36 0 0 Z " fill="#EC8661" transform="translate(62,52)"/>
</svg>
